<mxfile host="app.diagrams.net" agent="Mozilla/5.0 (Windows NT 10.0; Win64; x64) AppleWebKit/537.36 (KHTML, like Gecko) Chrome/141.0.0.0 Safari/537.36 Edg/141.0.0.0" version="28.2.7">
  <diagram name="第 1 页" id="4q1PRjDrTj0I12n9ZNpe">
    <mxGraphModel dx="527" dy="525" grid="1" gridSize="10" guides="1" tooltips="1" connect="1" arrows="1" fold="1" page="1" pageScale="1" pageWidth="827" pageHeight="1169" math="0" shadow="0">
      <root>
        <mxCell id="0" />
        <mxCell id="1" parent="0" />
        <mxCell id="Tjis6T0cJ1sylIyD4PFE-41" value="" style="rounded=1;whiteSpace=wrap;html=1;fillColor=none;strokeWidth=2;strokeColor=#6c8ebf;" vertex="1" parent="1">
          <mxGeometry x="111.83" y="20" width="497.17" height="330" as="geometry" />
        </mxCell>
        <mxCell id="Tjis6T0cJ1sylIyD4PFE-13" value="" style="edgeStyle=orthogonalEdgeStyle;rounded=0;orthogonalLoop=1;jettySize=auto;html=1;strokeWidth=3;endArrow=blockThin;endFill=1;" edge="1" parent="1" source="Tjis6T0cJ1sylIyD4PFE-1">
          <mxGeometry relative="1" as="geometry">
            <mxPoint x="109" y="94" as="targetPoint" />
          </mxGeometry>
        </mxCell>
        <mxCell id="Tjis6T0cJ1sylIyD4PFE-1" value="" style="outlineConnect=0;fontColor=#232F3E;gradientColor=none;fillColor=#232F3D;strokeColor=none;dashed=0;verticalLabelPosition=bottom;verticalAlign=top;align=center;html=1;fontSize=12;fontStyle=0;aspect=fixed;pointerEvents=1;shape=mxgraph.aws4.user;" vertex="1" parent="1">
          <mxGeometry x="29" y="68" width="52" height="52" as="geometry" />
        </mxCell>
        <mxCell id="Tjis6T0cJ1sylIyD4PFE-2" value="" style="outlineConnect=0;fontColor=#232F3E;gradientColor=none;fillColor=#232F3D;strokeColor=none;dashed=0;verticalLabelPosition=bottom;verticalAlign=top;align=center;html=1;fontSize=12;fontStyle=0;aspect=fixed;pointerEvents=1;shape=mxgraph.aws4.users;" vertex="1" parent="1">
          <mxGeometry x="20" y="200" width="70" height="70" as="geometry" />
        </mxCell>
        <mxCell id="Tjis6T0cJ1sylIyD4PFE-3" value="" style="outlineConnect=0;fontColor=#232F3E;gradientColor=none;fillColor=#000000;strokeColor=none;dashed=0;verticalLabelPosition=bottom;verticalAlign=top;align=center;html=1;fontSize=12;fontStyle=0;aspect=fixed;pointerEvents=1;shape=mxgraph.aws4.ecs_task;" vertex="1" parent="1">
          <mxGeometry x="125.42" y="45" width="30.83" height="40" as="geometry" />
        </mxCell>
        <mxCell id="Tjis6T0cJ1sylIyD4PFE-4" value="" style="points=[[0,0,0],[0.25,0,0],[0.5,0,0],[0.75,0,0],[1,0,0],[0,1,0],[0.25,1,0],[0.5,1,0],[0.75,1,0],[1,1,0],[0,0.25,0],[0,0.5,0],[0,0.75,0],[1,0.25,0],[1,0.5,0],[1,0.75,0]];outlineConnect=0;fontColor=#232F3E;fillColor=none;strokeColor=#000000;dashed=0;verticalLabelPosition=bottom;verticalAlign=top;align=center;html=1;fontSize=12;fontStyle=0;aspect=fixed;shape=mxgraph.aws4.resourceIcon;resIcon=mxgraph.aws4.database;" vertex="1" parent="1">
          <mxGeometry x="111.83" y="100" width="58" height="58" as="geometry" />
        </mxCell>
        <mxCell id="Tjis6T0cJ1sylIyD4PFE-6" value="&lt;b&gt;&lt;font style=&quot;font-size: 16px;&quot;&gt;Task&lt;/font&gt;&lt;/b&gt;" style="text;html=1;whiteSpace=wrap;strokeColor=none;fillColor=none;align=center;verticalAlign=middle;rounded=0;" vertex="1" parent="1">
          <mxGeometry x="156.25" y="50" width="60" height="30" as="geometry" />
        </mxCell>
        <mxCell id="Tjis6T0cJ1sylIyD4PFE-7" value="&lt;b&gt;&lt;font style=&quot;font-size: 16px;&quot;&gt;Data&lt;/font&gt;&lt;/b&gt;" style="text;html=1;whiteSpace=wrap;strokeColor=none;fillColor=none;align=center;verticalAlign=middle;rounded=0;" vertex="1" parent="1">
          <mxGeometry x="156.25" y="114" width="60" height="30" as="geometry" />
        </mxCell>
        <mxCell id="Tjis6T0cJ1sylIyD4PFE-15" value="" style="edgeStyle=segmentEdgeStyle;endArrow=blockThin;html=1;curved=0;rounded=0;endSize=8;startSize=8;sourcePerimeterSpacing=0;targetPerimeterSpacing=0;exitX=0.5;exitY=1;exitDx=0;exitDy=0;exitPerimeter=0;strokeWidth=3;endFill=1;" edge="1" parent="1" source="Tjis6T0cJ1sylIyD4PFE-4" target="Tjis6T0cJ1sylIyD4PFE-2">
          <mxGeometry width="100" relative="1" as="geometry">
            <mxPoint x="249" y="110" as="sourcePoint" />
            <mxPoint x="349" y="150" as="targetPoint" />
            <Array as="points">
              <mxPoint x="141" y="170" />
              <mxPoint x="55" y="170" />
            </Array>
          </mxGeometry>
        </mxCell>
        <mxCell id="Tjis6T0cJ1sylIyD4PFE-16" value="" style="rounded=1;whiteSpace=wrap;html=1;fillColor=none;strokeWidth=2;dashed=1;" vertex="1" parent="1">
          <mxGeometry x="249" y="40" width="130" height="270" as="geometry" />
        </mxCell>
        <mxCell id="Tjis6T0cJ1sylIyD4PFE-17" value="&lt;font style=&quot;font-size: 14px;&quot;&gt;MODEL1&lt;/font&gt;" style="rounded=1;whiteSpace=wrap;html=1;fillColor=#fff2cc;strokeColor=#d6b656;" vertex="1" parent="1">
          <mxGeometry x="259" y="60" width="110" height="25" as="geometry" />
        </mxCell>
        <mxCell id="Tjis6T0cJ1sylIyD4PFE-22" value="&lt;font style=&quot;font-size: 14px;&quot;&gt;MODEL1&lt;/font&gt;" style="rounded=1;whiteSpace=wrap;html=1;fillColor=#fff2cc;strokeColor=#d6b656;" vertex="1" parent="1">
          <mxGeometry x="259" y="165" width="110" height="25" as="geometry" />
        </mxCell>
        <mxCell id="Tjis6T0cJ1sylIyD4PFE-23" value="&lt;font style=&quot;font-size: 14px;&quot;&gt;MODEL2&lt;/font&gt;" style="rounded=1;whiteSpace=wrap;html=1;fillColor=#fff2cc;strokeColor=#d6b656;" vertex="1" parent="1">
          <mxGeometry x="259" y="96.13" width="110" height="25" as="geometry" />
        </mxCell>
        <mxCell id="Tjis6T0cJ1sylIyD4PFE-24" value="&lt;font style=&quot;font-size: 14px;&quot;&gt;MODEL2&lt;/font&gt;" style="rounded=1;whiteSpace=wrap;html=1;fillColor=#fff2cc;strokeColor=#d6b656;" vertex="1" parent="1">
          <mxGeometry x="259" y="210.9" width="110" height="25" as="geometry" />
        </mxCell>
        <mxCell id="Tjis6T0cJ1sylIyD4PFE-25" value="&lt;font style=&quot;font-size: 14px;&quot;&gt;MODEL3&lt;/font&gt;" style="rounded=1;whiteSpace=wrap;html=1;fillColor=#fff2cc;strokeColor=#d6b656;" vertex="1" parent="1">
          <mxGeometry x="259" y="256.5" width="110" height="25" as="geometry" />
        </mxCell>
        <mxCell id="Tjis6T0cJ1sylIyD4PFE-27" value="" style="edgeStyle=none;orthogonalLoop=1;jettySize=auto;html=1;rounded=0;strokeWidth=3;endArrow=blockThin;endFill=1;curved=0;" edge="1" parent="1">
          <mxGeometry width="100" relative="1" as="geometry">
            <mxPoint x="209" y="95" as="sourcePoint" />
            <mxPoint x="249" y="95" as="targetPoint" />
            <Array as="points" />
          </mxGeometry>
        </mxCell>
        <mxCell id="Tjis6T0cJ1sylIyD4PFE-28" value="" style="edgeStyle=none;orthogonalLoop=1;jettySize=auto;html=1;rounded=0;strokeWidth=3;endArrow=blockThin;endFill=1;" edge="1" parent="1">
          <mxGeometry width="100" relative="1" as="geometry">
            <mxPoint x="99" y="240" as="sourcePoint" />
            <mxPoint x="245" y="240" as="targetPoint" />
            <Array as="points" />
          </mxGeometry>
        </mxCell>
        <mxCell id="Tjis6T0cJ1sylIyD4PFE-29" value="" style="rounded=1;whiteSpace=wrap;html=1;fillColor=none;strokeWidth=2;dashed=1;" vertex="1" parent="1">
          <mxGeometry x="429" y="40" width="160" height="270" as="geometry" />
        </mxCell>
        <mxCell id="Tjis6T0cJ1sylIyD4PFE-30" value="&lt;font style=&quot;font-size: 14px;&quot;&gt;Setting for M1&lt;/font&gt;" style="rounded=1;whiteSpace=wrap;html=1;fillColor=#dae8fc;strokeColor=#6c8ebf;" vertex="1" parent="1">
          <mxGeometry x="440" y="60" width="138" height="25" as="geometry" />
        </mxCell>
        <mxCell id="Tjis6T0cJ1sylIyD4PFE-31" style="edgeStyle=orthogonalEdgeStyle;rounded=0;orthogonalLoop=1;jettySize=auto;html=1;exitX=0.5;exitY=1;exitDx=0;exitDy=0;" edge="1" parent="1" source="Tjis6T0cJ1sylIyD4PFE-30" target="Tjis6T0cJ1sylIyD4PFE-30">
          <mxGeometry relative="1" as="geometry" />
        </mxCell>
        <mxCell id="Tjis6T0cJ1sylIyD4PFE-32" value="&lt;font style=&quot;font-size: 14px;&quot;&gt;Setting for M1&lt;/font&gt;" style="rounded=1;whiteSpace=wrap;html=1;fillColor=#dae8fc;strokeColor=#6c8ebf;" vertex="1" parent="1">
          <mxGeometry x="440" y="94" width="138" height="25" as="geometry" />
        </mxCell>
        <mxCell id="Tjis6T0cJ1sylIyD4PFE-33" value="&lt;font style=&quot;font-size: 14px;&quot;&gt;Setting for M1&lt;/font&gt;" style="rounded=1;whiteSpace=wrap;html=1;fillColor=#dae8fc;strokeColor=#6c8ebf;" vertex="1" parent="1">
          <mxGeometry x="439" y="131.87" width="138" height="25" as="geometry" />
        </mxCell>
        <mxCell id="Tjis6T0cJ1sylIyD4PFE-34" value="&lt;font style=&quot;font-size: 14px;&quot;&gt;Setting for M1&lt;/font&gt;" style="rounded=1;whiteSpace=wrap;html=1;fillColor=#dae8fc;strokeColor=#6c8ebf;" vertex="1" parent="1">
          <mxGeometry x="440" y="165" width="138" height="25" as="geometry" />
        </mxCell>
        <mxCell id="Tjis6T0cJ1sylIyD4PFE-35" value="&lt;font style=&quot;font-size: 14px;&quot;&gt;Setting for M1&lt;/font&gt;" style="rounded=1;whiteSpace=wrap;html=1;fillColor=#dae8fc;strokeColor=#6c8ebf;" vertex="1" parent="1">
          <mxGeometry x="440" y="198" width="138" height="25" as="geometry" />
        </mxCell>
        <mxCell id="Tjis6T0cJ1sylIyD4PFE-36" value="&lt;font style=&quot;font-size: 14px;&quot;&gt;Setting for M2&lt;/font&gt;" style="rounded=1;whiteSpace=wrap;html=1;fillColor=#dae8fc;strokeColor=#6c8ebf;" vertex="1" parent="1">
          <mxGeometry x="439" y="233.8" width="138" height="25" as="geometry" />
        </mxCell>
        <mxCell id="Tjis6T0cJ1sylIyD4PFE-37" value="&lt;font style=&quot;font-size: 14px;&quot;&gt;Setting for M2&lt;/font&gt;" style="rounded=1;whiteSpace=wrap;html=1;fillColor=#dae8fc;strokeColor=#6c8ebf;" vertex="1" parent="1">
          <mxGeometry x="439.16" y="263.57" width="138" height="25" as="geometry" />
        </mxCell>
        <mxCell id="Tjis6T0cJ1sylIyD4PFE-38" value="" style="rounded=1;whiteSpace=wrap;html=1;fillColor=none;strokeWidth=2;dashed=1;" vertex="1" parent="1">
          <mxGeometry x="629" y="50" width="110" height="250" as="geometry" />
        </mxCell>
        <mxCell id="Tjis6T0cJ1sylIyD4PFE-39" value="&lt;b&gt;&lt;font style=&quot;font-size: 15px;&quot;&gt;Proposer Result&lt;/font&gt;&lt;/b&gt;" style="rounded=1;whiteSpace=wrap;html=1;fillColor=#d5e8d4;strokeColor=#82b366;" vertex="1" parent="1">
          <mxGeometry x="636.5" y="78" width="92.5" height="48.5" as="geometry" />
        </mxCell>
        <mxCell id="Tjis6T0cJ1sylIyD4PFE-40" value="" style="rounded=1;whiteSpace=wrap;html=1;fillColor=#d5e8d4;strokeColor=#82b366;" vertex="1" parent="1">
          <mxGeometry x="636.5" y="183" width="92.5" height="90" as="geometry" />
        </mxCell>
        <mxCell id="Tjis6T0cJ1sylIyD4PFE-45" value="" style="edgeStyle=orthogonalEdgeStyle;rounded=0;orthogonalLoop=1;jettySize=auto;html=1;strokeWidth=3;fillColor=#dae8fc;strokeColor=#6c8ebf;endArrow=blockThin;endFill=1;" edge="1" parent="1" source="Tjis6T0cJ1sylIyD4PFE-41" target="Tjis6T0cJ1sylIyD4PFE-44">
          <mxGeometry relative="1" as="geometry" />
        </mxCell>
        <mxCell id="Tjis6T0cJ1sylIyD4PFE-43" value="&lt;b&gt;&lt;font style=&quot;font-size: 15px;&quot;&gt;Community Result&lt;/font&gt;&lt;/b&gt;" style="text;html=1;whiteSpace=wrap;strokeColor=none;fillColor=none;align=center;verticalAlign=middle;rounded=0;" vertex="1" parent="1">
          <mxGeometry x="652.75" y="213" width="60" height="30" as="geometry" />
        </mxCell>
        <mxCell id="Tjis6T0cJ1sylIyD4PFE-44" value="" style="rounded=1;whiteSpace=wrap;html=1;fillColor=#f5f5f5;fontColor=#333333;strokeColor=#666666;strokeWidth=2;" vertex="1" parent="1">
          <mxGeometry x="270.42" y="380" width="180" height="60" as="geometry" />
        </mxCell>
        <mxCell id="Tjis6T0cJ1sylIyD4PFE-46" value="" style="shape=image;verticalLabelPosition=bottom;labelBackgroundColor=default;verticalAlign=top;aspect=fixed;imageAspect=0;editableCssRules=.*;image=data:image/svg+xml,PHN2ZyB4bWxuczp4bGluaz0iaHR0cDovL3d3dy53My5vcmcvMTk5OS94bGluayIgeG1sbnM9Imh0dHA6Ly93d3cudzMub3JnLzIwMDAvc3ZnIiBvdmVyZmxvdz0iaGlkZGVuIiBpZD0iSWNvbnNfQ2hlY2tsaXN0X0xUUiIgdmlld0JveD0iMTcgOCA2MiA4MCIgd2lkdGg9IjYyIiBoZWlnaHQ9IjgwIj48Zz48cGF0aCBkPSJNMjMgMTQgNzMgMTQgNzMgODIgMjMgODIgMjMgMTRaTTE3IDg4IDc5IDg4IDc5IDggMTcgOCAxNyA4OFoiLz48cmVjdCBoZWlnaHQ9IjQiIHdpZHRoPSIxNyIgeT0iMjMiIHg9IjUwIi8+PHJlY3QgaGVpZ2h0PSI0IiB3aWR0aD0iMTciIHk9IjM5IiB4PSI1MCIvPjxyZWN0IGhlaWdodD0iNCIgd2lkdGg9IjE3IiB5PSI3MSIgeD0iNTAiLz48cmVjdCBoZWlnaHQ9IjQiIHdpZHRoPSIxNyIgeT0iNTUiIHg9IjUwIi8+PHBhdGggZD0iTTQzLjggMjAuOCA0MSAxOCAzNC40IDI0LjYgMzEuOCAyMiAyOSAyNC44IDM0LjQgMzAuMloiLz48cGF0aCBkPSJNNDMuOCAzNi44IDQxIDM0IDM0LjQgNDAuNiAzMS44IDM4IDI5IDQwLjggMzQuNCA0Ni4yWiIvPjxwYXRoIGQ9Ik00My44IDUyLjggNDEgNTAgMzQuNCA1Ni42IDMxLjggNTQgMjkgNTYuOCAzNC40IDYyLjJaIi8+PHBhdGggZD0iTTQzLjggNjguNiA0MSA2NS44IDM0LjQgNzIuNCAzMS44IDY5LjggMjkgNzIuNiAzNC40IDc4WiIvPjwvZz48L3N2Zz4=;" vertex="1" parent="1">
          <mxGeometry x="284" y="385" width="38.75" height="50" as="geometry" />
        </mxCell>
        <mxCell id="Tjis6T0cJ1sylIyD4PFE-47" value="&lt;b&gt;&lt;font style=&quot;font-size: 15px;&quot;&gt;Complete Task&lt;/font&gt;&lt;/b&gt;" style="text;html=1;whiteSpace=wrap;strokeColor=none;fillColor=none;align=center;verticalAlign=middle;rounded=0;" vertex="1" parent="1">
          <mxGeometry x="329" y="395" width="110" height="30" as="geometry" />
        </mxCell>
        <mxCell id="Tjis6T0cJ1sylIyD4PFE-48" value="&lt;b&gt;&lt;font style=&quot;font-size: 15px;&quot;&gt;Models&lt;/font&gt;&lt;/b&gt;" style="text;html=1;whiteSpace=wrap;strokeColor=none;fillColor=none;align=center;verticalAlign=middle;rounded=0;" vertex="1" parent="1">
          <mxGeometry x="284" y="310" width="60" height="30" as="geometry" />
        </mxCell>
        <mxCell id="Tjis6T0cJ1sylIyD4PFE-50" value="&lt;b&gt;&lt;font style=&quot;font-size: 15px;&quot;&gt;Test Case Settings&lt;/font&gt;&lt;/b&gt;" style="text;html=1;whiteSpace=wrap;strokeColor=none;fillColor=none;align=center;verticalAlign=middle;rounded=0;" vertex="1" parent="1">
          <mxGeometry x="434" y="310" width="150" height="30" as="geometry" />
        </mxCell>
        <mxCell id="Tjis6T0cJ1sylIyD4PFE-51" value="&lt;b&gt;&lt;font style=&quot;font-size: 15px;&quot;&gt;Evalution Results&lt;/font&gt;&lt;/b&gt;" style="text;html=1;whiteSpace=wrap;strokeColor=none;fillColor=none;align=center;verticalAlign=middle;rounded=0;" vertex="1" parent="1">
          <mxGeometry x="619" y="300" width="130" height="30" as="geometry" />
        </mxCell>
        <mxCell id="Tjis6T0cJ1sylIyD4PFE-53" value="&lt;b&gt;&lt;font style=&quot;font-size: 15px;&quot;&gt;Difficulty&amp;nbsp;&lt;/font&gt;&lt;/b&gt;&lt;div&gt;&lt;b&gt;&lt;font style=&quot;font-size: 15px;&quot;&gt;Assessment Model&lt;/font&gt;&lt;/b&gt;&lt;span style=&quot;white-space: pre;&quot;&gt;&#x9;&lt;/span&gt;&lt;/div&gt;" style="whiteSpace=wrap;html=1;fillColor=#ffe6cc;strokeColor=#d79b00;verticalAlign=bottom;" vertex="1" parent="1">
          <mxGeometry x="605.25" y="375" width="155" height="70" as="geometry" />
        </mxCell>
        <mxCell id="Tjis6T0cJ1sylIyD4PFE-54" value="" style="html=1;shadow=0;dashed=0;align=center;verticalAlign=middle;shape=mxgraph.arrows2.arrow;dy=0.57;dx=18;direction=south;notch=0;strokeWidth=2;" vertex="1" parent="1">
          <mxGeometry x="664" y="325" width="37.5" height="45" as="geometry" />
        </mxCell>
        <mxCell id="Tjis6T0cJ1sylIyD4PFE-56" value="" style="edgeStyle=none;orthogonalLoop=1;jettySize=auto;html=1;rounded=0;fillColor=#ffe6cc;strokeColor=#d79b00;strokeWidth=3;endArrow=blockThin;endFill=1;entryX=1;entryY=0.5;entryDx=0;entryDy=0;startSize=6;exitX=0;exitY=0.5;exitDx=0;exitDy=0;" edge="1" parent="1" source="Tjis6T0cJ1sylIyD4PFE-53" target="Tjis6T0cJ1sylIyD4PFE-44">
          <mxGeometry width="100" relative="1" as="geometry">
            <mxPoint x="604" y="413.2875246168336" as="sourcePoint" />
            <mxPoint x="449" y="408" as="targetPoint" />
            <Array as="points" />
          </mxGeometry>
        </mxCell>
        <mxCell id="Tjis6T0cJ1sylIyD4PFE-58" value="" style="edgeStyle=segmentEdgeStyle;endArrow=blockThin;html=1;curved=0;rounded=0;endSize=8;startSize=8;sourcePerimeterSpacing=0;targetPerimeterSpacing=0;strokeWidth=3;endFill=1;" edge="1" parent="1">
          <mxGeometry width="100" relative="1" as="geometry">
            <mxPoint x="270.41999999999996" y="413.75" as="sourcePoint" />
            <mxPoint x="55" y="310" as="targetPoint" />
            <Array as="points">
              <mxPoint x="55" y="414" />
            </Array>
          </mxGeometry>
        </mxCell>
        <mxCell id="Tjis6T0cJ1sylIyD4PFE-59" value="&lt;font style=&quot;font-size: 13px;&quot;&gt;Ready for future resarch in community&lt;/font&gt;" style="text;html=1;whiteSpace=wrap;strokeColor=none;fillColor=none;align=center;verticalAlign=middle;rounded=0;" vertex="1" parent="1">
          <mxGeometry x="36.84" y="415" width="233.58" height="30" as="geometry" />
        </mxCell>
        <mxCell id="Tjis6T0cJ1sylIyD4PFE-63" value="" style="endArrow=none;html=1;rounded=0;exitX=1.001;exitY=0.227;exitDx=0;exitDy=0;exitPerimeter=0;strokeWidth=3;entryX=0.006;entryY=0.201;entryDx=0;entryDy=0;entryPerimeter=0;" edge="1" parent="1" target="Tjis6T0cJ1sylIyD4PFE-29">
          <mxGeometry width="50" height="50" relative="1" as="geometry">
            <mxPoint x="379.0000000000001" y="94.24999999999999" as="sourcePoint" />
            <mxPoint x="426" y="95" as="targetPoint" />
            <Array as="points" />
          </mxGeometry>
        </mxCell>
        <mxCell id="Tjis6T0cJ1sylIyD4PFE-69" value="" style="endArrow=none;html=1;rounded=0;exitX=1.001;exitY=0.227;exitDx=0;exitDy=0;exitPerimeter=0;strokeWidth=3;" edge="1" parent="1">
          <mxGeometry width="50" height="50" relative="1" as="geometry">
            <mxPoint x="589" y="93.72000000000003" as="sourcePoint" />
            <mxPoint x="629" y="94" as="targetPoint" />
            <Array as="points" />
          </mxGeometry>
        </mxCell>
        <mxCell id="Tjis6T0cJ1sylIyD4PFE-70" value="" style="endArrow=none;html=1;rounded=0;exitX=1.001;exitY=0.227;exitDx=0;exitDy=0;exitPerimeter=0;strokeWidth=3;" edge="1" parent="1">
          <mxGeometry width="50" height="50" relative="1" as="geometry">
            <mxPoint x="589" y="240.25" as="sourcePoint" />
            <mxPoint x="629" y="240" as="targetPoint" />
            <Array as="points" />
          </mxGeometry>
        </mxCell>
        <mxCell id="Tjis6T0cJ1sylIyD4PFE-71" value="&lt;b&gt;&lt;font style=&quot;font-size: 16px;&quot;&gt;Proposer&lt;/font&gt;&lt;/b&gt;" style="text;html=1;whiteSpace=wrap;strokeColor=none;fillColor=none;align=center;verticalAlign=middle;rounded=0;" vertex="1" parent="1">
          <mxGeometry x="25" y="120" width="60" height="30" as="geometry" />
        </mxCell>
        <mxCell id="Tjis6T0cJ1sylIyD4PFE-72" value="&lt;b&gt;&lt;font style=&quot;font-size: 16px;&quot;&gt;Community&lt;/font&gt;&lt;/b&gt;" style="text;html=1;whiteSpace=wrap;strokeColor=none;fillColor=none;align=center;verticalAlign=middle;rounded=0;" vertex="1" parent="1">
          <mxGeometry x="25" y="270" width="60" height="30" as="geometry" />
        </mxCell>
        <mxCell id="Tjis6T0cJ1sylIyD4PFE-84" value="" style="shape=image;verticalLabelPosition=bottom;labelBackgroundColor=default;verticalAlign=top;aspect=fixed;imageAspect=0;editableCssRules=.*;image=data:image/svg+xml,PHN2ZyB4bWxuczp4bGluaz0iaHR0cDovL3d3dy53My5vcmcvMTk5OS94bGluayIgeG1sbnM9Imh0dHA6Ly93d3cudzMub3JnLzIwMDAvc3ZnIiBvdmVyZmxvdz0iaGlkZGVuIiBoZWlnaHQ9IjQ0IiB3aWR0aD0iMjk4IiB2aWV3Qm94PSIwIDAgMjk4IDQ0Ij48ZGVmcz48Y2xpcFBhdGggaWQ9ImNsaXAwIj48cmVjdCBoZWlnaHQ9IjQ0IiB3aWR0aD0iMjk4IiB5PSIyNTEiIHg9IjY2MiIvPjwvY2xpcFBhdGg+PGxpbmVhckdyYWRpZW50IGlkPSJmaWxsMSIgc3ByZWFkTWV0aG9kPSJyZWZsZWN0IiBncmFkaWVudFVuaXRzPSJ1c2VyU3BhY2VPblVzZSIgeTI9IjI1MSIgeDI9IjgxMSIgeTE9IjI5NSIgeDE9IjgxMSI+PHN0b3Agc3RvcC1jb2xvcj0iI0ZGRkZGRiIgb2Zmc2V0PSIwIi8+PHN0b3Agc3RvcC1vcGFjaXR5PSIwLjgiIHN0b3AtY29sb3I9IiNGRkZGRkYiIG9mZnNldD0iMC43Ii8+PHN0b3Agc3RvcC1vcGFjaXR5PSIwIiBzdG9wLWNvbG9yPSIjRkZGRkZGIiBvZmZzZXQ9IjEiLz48L2xpbmVhckdyYWRpZW50PjwvZGVmcz48ZyB0cmFuc2Zvcm09InRyYW5zbGF0ZSgtNjYyIC0yNTEpIiBjbGlwLXBhdGg9InVybCgjY2xpcDApIj48cmVjdCBmaWxsPSJ1cmwoI2ZpbGwxKSIgaGVpZ2h0PSI0NCIgd2lkdGg9IjI5OCIgeT0iMjUxIiB4PSI2NjIiLz48L2c+PC9zdmc+;" vertex="1" parent="1">
          <mxGeometry x="253.5" y="108.63" width="121" height="17.87" as="geometry" />
        </mxCell>
        <mxCell id="Tjis6T0cJ1sylIyD4PFE-85" value="" style="shape=image;verticalLabelPosition=bottom;labelBackgroundColor=default;verticalAlign=top;aspect=fixed;imageAspect=0;editableCssRules=.*;image=data:image/svg+xml,PHN2ZyB4bWxuczp4bGluaz0iaHR0cDovL3d3dy53My5vcmcvMTk5OS94bGluayIgeG1sbnM9Imh0dHA6Ly93d3cudzMub3JnLzIwMDAvc3ZnIiBvdmVyZmxvdz0iaGlkZGVuIiBoZWlnaHQ9IjQ0IiB3aWR0aD0iMjk4IiB2aWV3Qm94PSIwIDAgMjk4IDQ0Ij48ZGVmcz48Y2xpcFBhdGggaWQ9ImNsaXAwIj48cmVjdCBoZWlnaHQ9IjQ0IiB3aWR0aD0iMjk4IiB5PSIyNTEiIHg9IjY2MiIvPjwvY2xpcFBhdGg+PGxpbmVhckdyYWRpZW50IGlkPSJmaWxsMSIgc3ByZWFkTWV0aG9kPSJyZWZsZWN0IiBncmFkaWVudFVuaXRzPSJ1c2VyU3BhY2VPblVzZSIgeTI9IjI1MSIgeDI9IjgxMSIgeTE9IjI5NSIgeDE9IjgxMSI+PHN0b3Agc3RvcC1jb2xvcj0iI0ZGRkZGRiIgb2Zmc2V0PSIwIi8+PHN0b3Agc3RvcC1vcGFjaXR5PSIwLjgiIHN0b3AtY29sb3I9IiNGRkZGRkYiIG9mZnNldD0iMC43Ii8+PHN0b3Agc3RvcC1vcGFjaXR5PSIwIiBzdG9wLWNvbG9yPSIjRkZGRkZGIiBvZmZzZXQ9IjEiLz48L2xpbmVhckdyYWRpZW50PjwvZGVmcz48ZyB0cmFuc2Zvcm09InRyYW5zbGF0ZSgtNjYyIC0yNTEpIiBjbGlwLXBhdGg9InVybCgjY2xpcDApIj48cmVjdCBmaWxsPSJ1cmwoI2ZpbGwxKSIgaGVpZ2h0PSI0NCIgd2lkdGg9IjI5OCIgeT0iMjUxIiB4PSI2NjIiLz48L2c+PC9zdmc+;" vertex="1" parent="1">
          <mxGeometry x="253.5" y="267.13" width="121" height="17.87" as="geometry" />
        </mxCell>
        <mxCell id="Tjis6T0cJ1sylIyD4PFE-89" value="" style="shape=image;verticalLabelPosition=bottom;labelBackgroundColor=default;verticalAlign=top;aspect=fixed;imageAspect=0;editableCssRules=.*;image=data:image/svg+xml,PHN2ZyB4bWxuczp4bGluaz0iaHR0cDovL3d3dy53My5vcmcvMTk5OS94bGluayIgeG1sbnM9Imh0dHA6Ly93d3cudzMub3JnLzIwMDAvc3ZnIiBvdmVyZmxvdz0iaGlkZGVuIiBoZWlnaHQ9IjQ0IiB3aWR0aD0iMjk4IiB2aWV3Qm94PSIwIDAgMjk4IDQ0Ij48ZGVmcz48Y2xpcFBhdGggaWQ9ImNsaXAwIj48cmVjdCBoZWlnaHQ9IjQ0IiB3aWR0aD0iMjk4IiB5PSIyNTEiIHg9IjY2MiIvPjwvY2xpcFBhdGg+PGxpbmVhckdyYWRpZW50IGlkPSJmaWxsMSIgc3ByZWFkTWV0aG9kPSJyZWZsZWN0IiBncmFkaWVudFVuaXRzPSJ1c2VyU3BhY2VPblVzZSIgeTI9IjI1MSIgeDI9IjgxMSIgeTE9IjI5NSIgeDE9IjgxMSI+PHN0b3Agc3RvcC1jb2xvcj0iI0ZGRkZGRiIgb2Zmc2V0PSIwIi8+PHN0b3Agc3RvcC1vcGFjaXR5PSIwLjkwMTk2MSIgc3RvcC1jb2xvcj0iI0ZGRkZGRiIgb2Zmc2V0PSIwLjciLz48c3RvcCBzdG9wLW9wYWNpdHk9IjAiIHN0b3AtY29sb3I9IiNGRkZGRkYiIG9mZnNldD0iMSIvPjwvbGluZWFyR3JhZGllbnQ+PC9kZWZzPjxnIHRyYW5zZm9ybT0idHJhbnNsYXRlKC02NjIgLTI1MSkiIGNsaXAtcGF0aD0idXJsKCNjbGlwMCkiPjxyZWN0IGZpbGw9InVybCgjZmlsbDEpIiBoZWlnaHQ9IjQ0IiB3aWR0aD0iMjk4IiB5PSIyNTEiIHg9IjY2MiIvPjwvZz48L3N2Zz4=;" vertex="1" parent="1">
          <mxGeometry x="439.16" y="213" width="140.84" height="20.8" as="geometry" />
        </mxCell>
        <mxCell id="Tjis6T0cJ1sylIyD4PFE-90" value="" style="shape=image;verticalLabelPosition=bottom;labelBackgroundColor=default;verticalAlign=top;aspect=fixed;imageAspect=0;editableCssRules=.*;image=data:image/svg+xml,PHN2ZyB4bWxuczp4bGluaz0iaHR0cDovL3d3dy53My5vcmcvMTk5OS94bGluayIgeG1sbnM9Imh0dHA6Ly93d3cudzMub3JnLzIwMDAvc3ZnIiBvdmVyZmxvdz0iaGlkZGVuIiBoZWlnaHQ9IjQ0IiB3aWR0aD0iMjk4IiB2aWV3Qm94PSIwIDAgMjk4IDQ0Ij48ZGVmcz48Y2xpcFBhdGggaWQ9ImNsaXAwIj48cmVjdCBoZWlnaHQ9IjQ0IiB3aWR0aD0iMjk4IiB5PSIyNTEiIHg9IjY2MiIvPjwvY2xpcFBhdGg+PGxpbmVhckdyYWRpZW50IGlkPSJmaWxsMSIgc3ByZWFkTWV0aG9kPSJyZWZsZWN0IiBncmFkaWVudFVuaXRzPSJ1c2VyU3BhY2VPblVzZSIgeTI9IjI1MSIgeDI9IjgxMSIgeTE9IjI5NSIgeDE9IjgxMSI+PHN0b3Agc3RvcC1jb2xvcj0iI0ZGRkZGRiIgb2Zmc2V0PSIwIi8+PHN0b3Agc3RvcC1vcGFjaXR5PSIwLjkwMTk2MSIgc3RvcC1jb2xvcj0iI0ZGRkZGRiIgb2Zmc2V0PSIwLjciLz48c3RvcCBzdG9wLW9wYWNpdHk9IjAiIHN0b3AtY29sb3I9IiNGRkZGRkYiIG9mZnNldD0iMSIvPjwvbGluZWFyR3JhZGllbnQ+PC9kZWZzPjxnIHRyYW5zZm9ybT0idHJhbnNsYXRlKC02NjIgLTI1MSkiIGNsaXAtcGF0aD0idXJsKCNjbGlwMCkiPjxyZWN0IGZpbGw9InVybCgjZmlsbDEpIiBoZWlnaHQ9IjQ0IiB3aWR0aD0iMjk4IiB5PSIyNTEiIHg9IjY2MiIvPjwvZz48L3N2Zz4=;" vertex="1" parent="1">
          <mxGeometry x="438.58" y="108.60000000000002" width="140.84" height="20.8" as="geometry" />
        </mxCell>
        <mxCell id="Tjis6T0cJ1sylIyD4PFE-91" value="" style="shape=image;verticalLabelPosition=bottom;labelBackgroundColor=default;verticalAlign=top;aspect=fixed;imageAspect=0;editableCssRules=.*;image=data:image/svg+xml,PHN2ZyB4bWxuczp4bGluaz0iaHR0cDovL3d3dy53My5vcmcvMTk5OS94bGluayIgeG1sbnM9Imh0dHA6Ly93d3cudzMub3JnLzIwMDAvc3ZnIiBvdmVyZmxvdz0iaGlkZGVuIiBoZWlnaHQ9IjQ0IiB3aWR0aD0iMjk4IiB2aWV3Qm94PSIwIDAgMjk4IDQ0Ij48ZGVmcz48Y2xpcFBhdGggaWQ9ImNsaXAwIj48cmVjdCBoZWlnaHQ9IjQ0IiB3aWR0aD0iMjk4IiB5PSIyNTEiIHg9IjY2MiIvPjwvY2xpcFBhdGg+PGxpbmVhckdyYWRpZW50IGlkPSJmaWxsMSIgc3ByZWFkTWV0aG9kPSJyZWZsZWN0IiBncmFkaWVudFVuaXRzPSJ1c2VyU3BhY2VPblVzZSIgeTI9IjI1MSIgeDI9IjgxMSIgeTE9IjI5NSIgeDE9IjgxMSI+PHN0b3Agc3RvcC1jb2xvcj0iI0ZGRkZGRiIgb2Zmc2V0PSIwIi8+PHN0b3Agc3RvcC1vcGFjaXR5PSIwLjkwMTk2MSIgc3RvcC1jb2xvcj0iI0ZGRkZGRiIgb2Zmc2V0PSIwLjciLz48c3RvcCBzdG9wLW9wYWNpdHk9IjAiIHN0b3AtY29sb3I9IiNGRkZGRkYiIG9mZnNldD0iMSIvPjwvbGluZWFyR3JhZGllbnQ+PC9kZWZzPjxnIHRyYW5zZm9ybT0idHJhbnNsYXRlKC02NjIgLTI1MSkiIGNsaXAtcGF0aD0idXJsKCNjbGlwMCkiPjxyZWN0IGZpbGw9InVybCgjZmlsbDEpIiBoZWlnaHQ9IjQ0IiB3aWR0aD0iMjk4IiB5PSIyNTEiIHg9IjY2MiIvPjwvZz48L3N2Zz4=;" vertex="1" parent="1">
          <mxGeometry x="438.58" y="274.6" width="140.84" height="20.8" as="geometry" />
        </mxCell>
        <mxCell id="Tjis6T0cJ1sylIyD4PFE-97" value="" style="endArrow=none;html=1;rounded=0;exitX=1.001;exitY=0.227;exitDx=0;exitDy=0;exitPerimeter=0;strokeWidth=3;entryX=0.006;entryY=0.201;entryDx=0;entryDy=0;entryPerimeter=0;" edge="1" parent="1">
          <mxGeometry width="50" height="50" relative="1" as="geometry">
            <mxPoint x="378" y="240.8" as="sourcePoint" />
            <mxPoint x="428.9999999999999" y="240.55" as="targetPoint" />
            <Array as="points" />
          </mxGeometry>
        </mxCell>
        <mxCell id="Tjis6T0cJ1sylIyD4PFE-98" value="" style="edgeStyle=segmentEdgeStyle;endArrow=blockThin;html=1;curved=0;rounded=0;endSize=8;startSize=8;sourcePerimeterSpacing=0;targetPerimeterSpacing=0;exitX=1;exitY=0.5;exitDx=0;exitDy=0;entryX=0;entryY=0.5;entryDx=0;entryDy=0;strokeWidth=2;strokeColor=#808080;endFill=1;" edge="1" parent="1" source="Tjis6T0cJ1sylIyD4PFE-22" target="Tjis6T0cJ1sylIyD4PFE-33">
          <mxGeometry width="100" relative="1" as="geometry">
            <mxPoint x="390" y="190" as="sourcePoint" />
            <mxPoint x="490" y="230" as="targetPoint" />
            <Array as="points">
              <mxPoint x="400" y="177" />
              <mxPoint x="400" y="144" />
            </Array>
          </mxGeometry>
        </mxCell>
        <mxCell id="Tjis6T0cJ1sylIyD4PFE-100" value="" style="edgeStyle=segmentEdgeStyle;endArrow=blockThin;html=1;curved=0;rounded=0;endSize=8;startSize=8;sourcePerimeterSpacing=0;targetPerimeterSpacing=0;exitX=1;exitY=0.5;exitDx=0;exitDy=0;strokeWidth=2;strokeColor=#808080;endFill=1;entryX=0;entryY=0;entryDx=0;entryDy=0;" edge="1" parent="1" target="Tjis6T0cJ1sylIyD4PFE-89">
          <mxGeometry width="100" relative="1" as="geometry">
            <mxPoint x="369" y="177.98000000000002" as="sourcePoint" />
            <mxPoint x="430" y="180" as="targetPoint" />
            <Array as="points">
              <mxPoint x="400" y="178" />
              <mxPoint x="400" y="213" />
            </Array>
          </mxGeometry>
        </mxCell>
        <mxCell id="Tjis6T0cJ1sylIyD4PFE-101" value="" style="edgeStyle=none;orthogonalLoop=1;jettySize=auto;html=1;rounded=0;entryX=0;entryY=0.5;entryDx=0;entryDy=0;strokeColor=#808080;strokeWidth=2;endArrow=blockThin;endFill=1;" edge="1" parent="1" target="Tjis6T0cJ1sylIyD4PFE-34">
          <mxGeometry width="100" relative="1" as="geometry">
            <mxPoint x="368.58" y="177.01999999999998" as="sourcePoint" />
            <mxPoint x="438.58" y="177.01999999999998" as="targetPoint" />
            <Array as="points" />
          </mxGeometry>
        </mxCell>
      </root>
    </mxGraphModel>
  </diagram>
</mxfile>
